<?xml version="1.0" encoding="UTF-8"?>
<!-- Generated by Pixelmator Pro 3.6.4 -->
<svg width="38" height="38" viewBox="0 0 38 38" xmlns="http://www.w3.org/2000/svg">
    <g id="Logo-mark-left">
        <g id="Group">
            <g id="mark-copy">
                <linearGradient id="linearGradient1" x1="23.2669" y1="4.385149" x2="14.535815" y2="40.672084" gradientUnits="userSpaceOnUse">
                    <stop offset="1e-05" stop-color="#3d3ac4" stop-opacity="1"/>
                    <stop offset="0.692628" stop-color="#56c5fd" stop-opacity="1"/>
                    <stop offset="1" stop-color="#bbf8ff" stop-opacity="1"/>
                </linearGradient>
                <path id="Oval" fill="url(#linearGradient1)" fill-rule="evenodd" stroke="none" d="M 19 38 C 38 38 38 34.200001 38 19 C 38 3.799999 38 0 19 0 C 0 0 0 3.799999 0 19 C 0 34.200001 0 38 19 38 Z"/>
                <g id="Top-element">
                    <g id="g1">
                        <path id="Path" fill="#000000" fill-rule="evenodd" stroke="none" d="M 6.351519 16.07778 L 18.61405 8.733337 L 30.876581 16.07778 L 18.61405 23.42222 L 6.351519 16.07778 Z M 10.753453 16.252647 L 18.61405 20.974073 L 26.474648 16.252647 L 18.61405 11.531221 L 10.753453 16.252647 Z"/>
                    </g>
                    <g id="g2">
                        <path id="path1" fill="#ffffff" fill-rule="evenodd" stroke="none" d="M 6.351519 16.07778 L 18.61405 8.733337 L 30.876581 16.07778 L 18.61405 23.42222 L 6.351519 16.07778 Z M 10.753453 16.252647 L 18.61405 20.974073 L 26.474648 16.252647 L 18.61405 11.531221 L 10.753453 16.252647 Z"/>
                    </g>
                </g>
                <g id="Bottom-el" opacity="0.75">
                    <g id="g3">
                        <path id="path2" fill="#000000" fill-rule="evenodd" stroke="none" d="M 6.351519 22.235126 L 8.547976 20.943275 L 18.61405 26.857033 L 28.745382 20.981657 L 30.876581 22.235126 L 18.61405 29.447365 Z"/>
                    </g>
                    <g id="g4">
                        <path id="path3" fill="#ffffff" fill-rule="evenodd" stroke="none" d="M 6.351519 22.235126 L 8.547976 20.943275 L 18.61405 26.857033 L 28.745382 20.981657 L 30.876581 22.235126 L 18.61405 29.447365 Z"/>
                    </g>
                </g>
            </g>
        </g>
    </g>
</svg>
